<svg xmlns="http://www.w3.org/2000/svg" id="Layer_1" viewBox="0 0 200 200"><style>.st1{fill:#fff}</style><path fill="#1a315d" d="M192.8 100a92.5 92.5 0 0 0-30.1-68.3A92.2 92.2 0 0 0 48 23.1 93 93 0 0 0 23.2 152a92.7 92.7 0 0 0 169.6-52z"/><path d="M43.4 150.1a29 29 0 0 0 18.9-17 40 40 0 0 0 2.6-14.9v-104a90.5 90.5 0 0 0-16.8 9v93c0 4-.5 7.4-1.5 10.2-1 2.7-2.5 4.9-4.3 6.6a17.2 17.2 0 0 1-6.7 3.5 49 49 0 0 1-21-.6 93.6 93.6 0 0 0 8.8 16.2l5.2.2a46 46 0 0 0 14.8-2.2zM90.6 90.5V30.9H73.9v137.6h16.8v-63h72.1v62.7c6.5-6 12.2-12.9 16.8-20.5V52.2a94.7 94.7 0 0 0-16.8-20.5v58.8H90.6z" class="st1"/><path d="M100 4C47.1 4 4 47.1 4 100s43.1 96 96 96 96-43.1 96-96-43.1-96-96-96zm62.7 164.3a92.4 92.4 0 0 1-139.5-16.2 90.7 90.7 0 0 1-16-52 92.8 92.8 0 1 1 155.5 68.2z" class="st1"/></svg>